<?xml version="1.0" encoding="utf-8"?>
<!-- Generator: Adobe Illustrator 23.0.1, SVG Export Plug-In . SVG Version: 6.00 Build 0)  -->
<svg version="1.1" id="Layer_1" xmlns="http://www.w3.org/2000/svg" xmlns:xlink="http://www.w3.org/1999/xlink" x="0px" y="0px"
	 viewBox="0 0 146.65 73.89" style="enable-background:new 0 0 146.65 73.89;" xml:space="preserve">
<style type="text/css">
	.st0{fill:none;}
	.st1{fill:#DA8FBD;}
	.st2{fill:#FFFFFF;}
	.st3{fill:#02646C;}
</style>
<g>
	<g>
		<path class="st0" d="M48.33,26.33c2.48-1.04,2.54-4.21,0.41-5.93c1.46-1.49,1.27-3.34,0.28-4.34c0.08-0.25,0.66-1.33,0.54-2.65
			c-0.12-1.32-0.75-1.79-0.92-2.01c1.02-0.52,2.42-1.54,2.31-1.79c-0.11-0.26-1.65-0.31-2.85-0.13c-0.15-0.62-1.2-1.54-3.37-1.21
			c-0.79-1.06-2.45-0.84-3.11-0.02c-1.37-0.24-2.53,0.53-2.95,1.74c-1.56-0.05-3,0.48-3,0.62c0,0.12,0.12,0.46,1.15,0.83
			c2.22,0.79,0.87,0.36,0.55,2.13c-0.12,0.67,0.04,1.21,0.18,1.53c0.12,0.27-0.28,0.53-0.52,0.3c-1.85-1.8-4.3-1.32-5.25-0.28
			c-1.34-1.27-2.73-1.11-3.63-0.6c2.96,1.88,4.93,5.19,4.93,8.97c0,1.62-0.37,3.14-1.01,4.51h16.45c0.08,0,0.17,0.01,0.25,0.01
			C48.81,27.41,48.68,26.82,48.33,26.33z M46.51,12.79c-0.65,0.41-1.16,0.77-1.54,1.9C44.82,13.05,46.13,12.66,46.51,12.79z
			 M42.3,14.7c-0.42-1.03-0.95-1.33-1.61-1.69C41.02,12.83,42.31,13.12,42.3,14.7z M46.05,16.11c-0.25,0.73-0.65,2.44-2.03,2.49
			c-1.19,0.04-2.13-0.74-2.6-1.9c-0.41-1-0.26-1.85-1.07-2.61c0.8,0.33,0.99,1.54,1.27,2.38c0.28,0.83,1.12,1.58,2.15,1.7
			c-0.02-0.41-0.01-0.64-0.02-0.84c-0.33-0.19-0.33-0.51-0.7-0.75c0.44,0.09,0.6,0.38,0.82,0.38c0.22,0,0.38-0.35,0.75-0.45
			c-0.31,0.34-0.36,0.66-0.62,0.83c-0.01,0.24,0.01,0.64,0.02,0.83c0.93-0.08,1.45-1.05,1.77-2.05c0.31-1,0.51-2.09,1.08-2.51
			C46.38,14.28,46.39,15.11,46.05,16.11z"/>
		<path class="st1" d="M13.34,27.97c0.25,0.01,0.5,0.02,0.75,0.02c7.67,0,13.6-6.49,13.09-14c0.67,0.34,1.3,0.76,1.88,1.24
			C28.9,20.8,25.65,25.61,21,28h1.33c4.16-2.56,7.02-7.06,7.35-12.22c0.56,0.55,1.06,1.15,1.49,1.82c-0.06,4.09-1.92,7.79-4.88,10.4
			h0.93c2.56-2.46,4.23-5.73,4.55-9.36c0.41,0.83,0.71,1.72,0.88,2.65c-0.31,2.48-1.38,4.77-3.01,6.71h0.83
			c1.05-1.34,1.85-2.83,2.35-4.43c-0.06,1.6-0.49,3.1-1.2,4.43h0.45c0.64-1.37,1.01-2.9,1.01-4.51c0-3.77-1.97-7.09-4.93-8.97
			c0.9-0.51,2.29-0.67,3.63,0.6c0.96-1.04,3.4-1.52,5.25,0.28c0.24,0.24,0.64-0.03,0.52-0.3c-0.14-0.33-0.3-0.87-0.18-1.53
			c0.31-1.77,1.67-1.33-0.55-2.13c-1.03-0.37-1.15-0.7-1.15-0.83c0-0.14,1.44-0.67,3-0.62c0.42-1.2,1.58-1.98,2.95-1.74
			c0.66-0.82,2.32-1.04,3.11,0.02c2.17-0.33,3.22,0.59,3.37,1.21c1.2-0.17,2.74-0.12,2.85,0.13c0.11,0.26-1.29,1.28-2.31,1.79
			c0.17,0.21,0.8,0.69,0.92,2.01c0.12,1.32-0.46,2.41-0.54,2.65c1,1,1.18,2.84-0.28,4.34c2.13,1.72,2.06,4.9-0.41,5.93
			c0.35,0.49,0.48,1.08,0.43,1.68c0.18,0.01,0.36,0.03,0.53,0.07c0.04-0.5-0.03-1.02-0.22-1.51c2.28-1.36,2.2-4.52,0.46-6.21
			c1.01-1.2,1.12-3.17,0.13-4.41c0.6-1.47,0.69-3.16-0.17-4.39c3.33-1.99,2.25-3.02-1.08-2.67c-0.78-1.14-2.15-1.38-3.52-1.19
			c-0.32-0.27-0.87-0.71-1.75-0.71c-0.67,0-1.27,0.22-1.74,0.69c-1.4-0.11-2.53,0.61-3.1,1.77c-0.87,0.02-3.19,0.27-3.19,1.17
			c0,0.93,1.5,1.33,2.22,1.59c-0.47,0.72-0.63,1.54-0.52,2.29c-1.65-1.18-3.74-1.07-5.04-0.11c-1.55-1.19-3.15-0.88-4.15-0.19
			c-0.74-0.41-1.53-0.73-2.36-0.96c0.43,0.12,0.84,0.26,1.24,0.43c0.07,0.68,0.08,1.36,0.03,2.04c-0.64-1.14-1.55-2.08-2.68-2.75
			c-0.45-0.06-0.91-0.09-1.37-0.09c-0.13,0-0.26,0.01-0.39,0.01c1.97,0.62,3.57,2.12,4.3,4.06c-0.13,0.8-0.34,1.57-0.62,2.33
			c-0.86-2.89-3.13-5.15-5.99-6.03c-4.53,1.2-7.88,5.33-7.88,10.25c0,1.78,0.44,3.46,1.22,4.94c0.12-0.06,0.25-0.12,0.38-0.17
			C13.45,28.16,13.39,28.07,13.34,27.97z M18.62,13.62c3.39,0.61,6.08,3.26,6.74,6.64c-0.4,0.84-0.9,1.64-1.49,2.38
			c-0.45-3.92-3.34-7.12-7.19-7.97C17.28,14.24,17.94,13.89,18.62,13.62z M15.98,15.18c4.09,0.62,7.13,4.01,7.3,8.14
			c-0.56,0.61-1.17,1.15-1.83,1.63c-0.17-4.04-3.15-7.41-7.1-8.11C14.83,16.23,15.37,15.68,15.98,15.18z M13.92,17.43
			c3.94,0.54,6.92,3.98,6.89,7.96c-0.42,0.27-0.85,0.51-1.29,0.72c-0.49-3.46-3.09-6.27-6.51-7.03
			C13.27,18.51,13.57,17.95,13.92,17.43z M12.77,19.69c3.27,0.68,5.74,3.39,6.13,6.7c-0.66,0.28-1.35,0.5-2.05,0.65
			c-0.59-2.38-2.31-4.33-4.6-5.19C12.35,21.11,12.53,20.38,12.77,19.69z M12.16,23.19c0-0.22,0.01-0.45,0.02-0.67
			c2,0.82,3.51,2.55,4.03,4.65c-0.69,0.12-1.39,0.18-2.09,0.18c-0.37,0-0.74-0.02-1.11-0.05C12.47,26.04,12.16,24.65,12.16,23.19z"
			/>
		<path class="st1" d="M46.51,12.79c-0.38-0.13-1.69,0.26-1.54,1.9C45.34,13.56,45.86,13.2,46.51,12.79z"/>
		<path class="st1" d="M42.3,14.7c0.01-1.58-1.28-1.87-1.61-1.69C41.35,13.36,41.88,13.67,42.3,14.7z"/>
		<path class="st1" d="M45.79,16.11c-0.31,1-0.83,1.98-1.77,2.05c-0.01-0.19-0.03-0.59-0.02-0.83c0.25-0.17,0.3-0.49,0.62-0.83
			c-0.38,0.1-0.53,0.45-0.75,0.45c-0.21,0-0.37-0.28-0.82-0.38c0.37,0.25,0.36,0.56,0.7,0.75c0.01,0.2,0,0.43,0.02,0.84
			c-1.02-0.12-1.87-0.87-2.15-1.7c-0.28-0.83-0.47-2.04-1.27-2.38c0.81,0.75,0.66,1.61,1.07,2.61c0.48,1.16,1.41,1.94,2.6,1.9
			c1.38-0.05,1.78-1.77,2.03-2.49c0.34-1,0.34-1.83,0.83-2.51C46.3,14.02,46.11,15.11,45.79,16.11z"/>
		<path class="st2" d="M16.85,27.05c0.7-0.16,1.39-0.38,2.05-0.65c-0.39-3.32-2.87-6.02-6.13-6.7c-0.25,0.69-0.43,1.41-0.52,2.16
			C14.55,22.72,16.27,24.66,16.85,27.05z"/>
		<path class="st2" d="M23.87,22.63c0.59-0.74,1.09-1.54,1.49-2.38c-0.66-3.38-3.35-6.03-6.74-6.64c-0.69,0.28-1.34,0.63-1.94,1.04
			C20.53,15.51,23.42,18.71,23.87,22.63z"/>
		<path class="st2" d="M19.52,26.12c0.44-0.21,0.87-0.45,1.29-0.72c0.03-3.98-2.95-7.42-6.89-7.96c-0.35,0.52-0.65,1.07-0.91,1.65
			C16.43,19.85,19.03,22.66,19.52,26.12z"/>
		<path class="st2" d="M25.78,19.26c0.28-0.75,0.49-1.53,0.62-2.33c-0.73-1.93-2.33-3.44-4.3-4.06c-0.01,0-0.02-0.01-0.03-0.01
			c-0.66,0.03-1.3,0.12-1.92,0.26c-0.13,0.03-0.26,0.06-0.38,0.09c0.01,0,0.01,0,0.02,0.01C22.65,14.11,24.92,16.38,25.78,19.26z"/>
		<path class="st2" d="M26.54,15.71c0.04-0.67,0.03-1.35-0.03-2.04c-0.4-0.17-0.82-0.31-1.24-0.43c-0.03-0.01-0.05-0.02-0.08-0.02
			c-0.16-0.04-0.32-0.08-0.49-0.12c-0.19-0.04-0.38-0.08-0.58-0.11c-0.01,0-0.01,0-0.02,0c-0.08-0.01-0.17-0.03-0.25-0.04
			c0.01,0,0.01,0.01,0.02,0.01C24.99,13.63,25.9,14.57,26.54,15.71z"/>
		<path class="st2" d="M21.45,24.96c0.66-0.48,1.27-1.03,1.83-1.63c-0.17-4.13-3.21-7.52-7.3-8.14c-0.6,0.49-1.15,1.05-1.63,1.66
			C18.3,17.55,21.28,20.92,21.45,24.96z"/>
		<path class="st2" d="M30.47,28h1.15c0.71-1.33,1.14-2.83,1.2-4.43C32.32,25.17,31.52,26.66,30.47,28z"/>
		<path class="st2" d="M31.76,18.64c-0.32,3.62-1.99,6.89-4.55,9.36h2.42c1.63-1.93,2.7-4.23,3.01-6.71
			C32.47,20.36,32.17,19.47,31.76,18.64z"/>
		<path class="st2" d="M16.22,27.17c-0.53-2.1-2.03-3.83-4.03-4.65c-0.01,0.22-0.02,0.44-0.02,0.67c0,1.46,0.3,2.85,0.85,4.11
			c0.37,0.03,0.74,0.05,1.11,0.05C14.83,27.35,15.53,27.29,16.22,27.17z"/>
		<path class="st2" d="M29.06,15.23c-0.58-0.48-1.21-0.89-1.88-1.24c0.51,7.52-5.42,14-13.09,14c-0.25,0-0.5-0.01-0.75-0.02
			c0.05,0.1,0.11,0.19,0.17,0.28c0.42-0.16,0.88-0.25,1.35-0.25H21C25.65,25.61,28.9,20.8,29.06,15.23z"/>
		<path class="st2" d="M31.17,17.6c-0.43-0.66-0.93-1.27-1.49-1.82c-0.33,5.16-3.19,9.66-7.35,12.22h3.96
			C29.25,25.38,31.11,21.69,31.17,17.6z"/>
		<path class="st1" d="M49.29,28.08c-0.17-0.04-0.35-0.06-0.53-0.07C48.68,28.01,48.59,28,48.51,28H32.06h-0.45h-1.15h-0.83h-2.42
			h-0.93h-3.96H21h-6.14c-0.48,0-0.93,0.09-1.35,0.25c-0.13,0.05-0.26,0.11-0.38,0.17c-1.2,0.63-2.03,1.89-2.03,3.34v23.01
			c0,2.08,1.68,3.76,3.76,3.76h33.65c2.08,0,3.76-1.68,3.76-3.76V31.76C52.27,29.95,50.99,28.44,49.29,28.08z"/>
	</g>
	<g>
		<path class="st2" d="M13.94,29.91h2.93v15.63c1.55-4.77,9.18-8.03,10.52-15.63h3.02c-0.21,3.83-4.23,6.95-7.84,10
			c8.68,0.57,6.04,8.67,6.04,12.76c0,1.72,0.8,2.65,2.01,2.65v0.36c-3.65,0-5.37-1.29-5.37-3.37c0-4.19,4.78-11.72-3.1-12.08
			c-2.52,2.15-4.78,4.23-5.28,6.52v8.92h-2.93V29.91z"/>
		<path class="st2" d="M49.69,29.93h-3.27v0.97c-1.26-0.86-2.94-1.33-5.23-1.33c-7.62,0-9.16,4.16-9.16,6.56
			c0,3.12,1.96,5.56,6.5,6.24c-5.37,0.79-7.9,3.69-7.9,6.88c0,4.16,3.97,6.77,10.56,6.77c1.96,0,3.79-0.29,5.23-0.9v0.57h3.27V29.93
			z M41.56,42.15c-4.53,0-5.98-3.55-5.98-6.67c0-2.26,1.22-5.52,4.44-5.52c3.97,0,5.94,1.94,6.4,5.56v2.9
			C46.05,40.39,44.93,42.15,41.56,42.15z M46.42,41.4v11c-0.37,1.97-1.5,3.15-4.11,3.15c-6.92,0-8.04-4.12-8.04-7.13
			c0-2.94,2.15-5.88,6.92-5.88C43.15,42.54,44.97,42.15,46.42,41.4z"/>
	</g>
	<g>
		<path class="st1" d="M56.58,53.94v2.15h-0.57v-5.61h0.57v0.21c0.22-0.19,0.51-0.29,0.91-0.29c1.32,0,1.75,1.03,1.75,1.98
			c0,0.94-0.51,1.82-1.75,1.82C57.14,54.21,56.83,54.11,56.58,53.94z M57.29,54.11c0.91,0,1.33-1.04,1.33-2.18
			c0-0.73-0.22-1.43-0.93-1.43c-0.55,0-1.03,0.41-1.11,1.19v1.57C56.64,53.7,56.84,54.11,57.29,54.11z"/>
		<path class="st1" d="M61.72,55.09c-0.14,0.69-0.46,1.08-1.07,1.08c-0.62,0-1.04-0.53-1.04-1.29c0-0.69,0.33-1.54,0.33-2.31
			c0-0.45-0.15-0.65-0.39-0.65v-0.08c0.7,0,0.87,0.44,0.87,0.81c0,0.84-0.33,1.47-0.33,2.51c0,0.43,0.27,0.85,0.74,0.85
			c0.56,0,0.89-0.58,0.89-1.91v-2.26h0.49v4.25h-0.49V55.09z"/>
		<path class="st1" d="M62.61,51.84h0.49v1c0.13-0.68,0.44-1.08,0.99-1.08c0.6,0,0.95,0.48,0.95,0.94h-0.57
			c0-0.49-0.23-0.79-0.57-0.79c-0.49,0-0.82,0.58-0.82,1.91v2.26h-0.49V51.84z"/>
		<path class="st1" d="M65.24,53.97c0-1.22,0.33-2.2,1.42-2.2c0.78,0,1.3,0.54,1.31,1.09v0.01v0.01c-0.02,1.18-2.28,0.97-2.28,1.68
			c0,0.88,0.19,1.51,0.82,1.51c0.6,0,0.87-0.44,1.04-0.99h0.4c-0.18,0.65-0.57,1.08-1.29,1.08C65.57,56.16,65.24,55.18,65.24,53.97z
			 M67.41,52.87c0-0.37-0.1-1.01-0.59-1.01c-0.8,0-1.06,1.64-1.12,2.42C66.07,53.79,67.4,53.82,67.41,52.87z"/>
		<path class="st1" d="M69.96,50.49h0.58c0.09,1.74,0.57,3.47,1.35,5.21c0.18-0.43,0.31-0.88,0.4-1.35
			c-0.46-1.29-0.73-2.57-0.8-3.86h0.58c0.05,0.87,0.19,1.72,0.41,2.59c0.09-0.86,0.1-1.73,0.1-2.59h0.58
			c-0.06,1.08-0.21,2.17-0.49,3.25c0.2,0.66,0.45,1.3,0.74,1.96c0.63-1.59,0.7-3.43,0.7-5.21h0.58c-0.1,1.77-0.42,3.54-1.24,5.31
			l0.14,0.3h-0.58c-0.23-0.48-0.44-0.97-0.63-1.45c-0.13,0.39-0.28,0.77-0.46,1.15l0.14,0.3h-0.58
			C70.58,54.22,70.06,52.36,69.96,50.49z"/>
		<path class="st1" d="M74.91,53.97c0-1.22,0.33-2.2,1.42-2.2c1.08,0,1.42,0.98,1.42,2.2c0,1.22-0.33,2.2-1.42,2.2
			C75.24,56.16,74.91,55.18,74.91,53.97z M76.18,56.07c0.91,0,1.12-2.14,1.12-2.71c0-0.88-0.19-1.5-0.81-1.5
			c-0.91,0-1.12,2.13-1.12,2.7C75.36,55.44,75.56,56.07,76.18,56.07z"/>
		<path class="st1" d="M78.07,53.97c0-1.22,0.33-2.2,1.42-2.2c1.08,0,1.42,0.98,1.42,2.2c0,1.22-0.33,2.2-1.42,2.2
			C78.4,56.16,78.07,55.18,78.07,53.97z M79.34,56.07c0.91,0,1.12-2.14,1.12-2.71c0-0.88-0.19-1.5-0.81-1.5
			c-0.91,0-1.12,2.13-1.12,2.7C78.52,55.44,78.72,56.07,79.34,56.07z"/>
		<path class="st1" d="M81.27,50.49h0.49v5.61h-0.49V50.49z"/>
		<path class="st1" d="M82.2,55.73c0-0.23,0.15-0.59,0.4-0.59c0.15,0,0.23,0.16,0.23,0.36c0,0.3-0.15,0.79-0.63,0.93v-0.08
			c0.12-0.06,0.23-0.16,0.3-0.27c-0.02,0.01-0.04,0.01-0.06,0.01C82.29,56.09,82.2,55.95,82.2,55.73z"/>
		<path class="st3" d="M85.46,53.94v2.15h-0.57v-5.61h0.57v0.21c0.22-0.19,0.51-0.29,0.91-0.29c1.32,0,1.75,1.03,1.75,1.98
			c0,0.94-0.51,1.82-1.75,1.82C86.02,54.21,85.71,54.11,85.46,53.94z M86.17,54.11c0.91,0,1.33-1.04,1.33-2.18
			c0-0.73-0.22-1.43-0.93-1.43c-0.55,0-1.03,0.41-1.11,1.19v1.57C85.52,53.7,85.72,54.11,86.17,54.11z"/>
		<path class="st3" d="M90.6,55.09c-0.14,0.69-0.46,1.08-1.07,1.08c-0.62,0-1.04-0.53-1.04-1.29c0-0.69,0.33-1.54,0.33-2.31
			c0-0.45-0.15-0.65-0.39-0.65v-0.08c0.7,0,0.87,0.44,0.87,0.81c0,0.84-0.33,1.47-0.33,2.51c0,0.43,0.27,0.85,0.74,0.85
			c0.56,0,0.89-0.58,0.89-1.91v-2.26h0.49v4.25H90.6V55.09z"/>
		<path class="st3" d="M91.49,51.84h0.49v1c0.13-0.68,0.44-1.08,0.99-1.08c0.6,0,0.95,0.48,0.95,0.94h-0.57
			c0-0.49-0.23-0.79-0.57-0.79c-0.49,0-0.82,0.58-0.82,1.91v2.26h-0.49V51.84z"/>
		<path class="st3" d="M94.12,53.97c0-1.22,0.33-2.2,1.42-2.2c0.78,0,1.3,0.54,1.31,1.09v0.01v0.01c-0.02,1.18-2.28,0.97-2.28,1.68
			c0,0.88,0.19,1.51,0.82,1.51c0.6,0,0.87-0.44,1.04-0.99h0.4c-0.18,0.65-0.57,1.08-1.29,1.08C94.45,56.16,94.12,55.18,94.12,53.97z
			 M96.29,52.87c0-0.37-0.1-1.01-0.59-1.01c-0.8,0-1.06,1.64-1.12,2.42C94.95,53.79,96.28,53.82,96.29,52.87z"/>
		<path class="st3" d="M100.63,56.16c-1.41,0-1.84-1.27-1.84-2.84c0-1.65,0.43-2.92,1.84-2.92c1.04,0,1.54,0.69,1.73,1.73h-0.65
			c-0.06-0.98-0.18-1.63-0.88-1.63c-1.21,0-1.54,2.53-1.54,3.58c0,1.14,0.33,1.97,1.14,1.97c0.79,0,1.17-0.64,1.4-1.4h0.49
			C102.1,55.56,101.6,56.16,100.63,56.16z"/>
		<path class="st3" d="M102.72,51.84h0.49v1c0.13-0.68,0.44-1.08,0.99-1.08c0.6,0,0.95,0.48,0.95,0.94h-0.57
			c0-0.49-0.23-0.79-0.57-0.79c-0.49,0-0.82,0.58-0.82,1.91v2.26h-0.49V51.84z"/>
		<path class="st3" d="M106.64,51.77L106.64,51.77h0.02c0.78,0.01,1.19,0.54,1.19,1.29c0,0.69-0.33,1.54-0.33,2.31
			c0,0.45,0.15,0.65,0.39,0.65v0.08c-0.35,0-0.57-0.11-0.7-0.26c-0.2,0.19-0.51,0.33-0.98,0.33c-0.8,0-1.16-0.54-1.16-1.04
			c0-1.56,1.97-1.04,1.97-2.65c0-0.41-0.2-0.62-0.38-0.62h-0.01c-0.82,0.01-0.91,0.76-0.91,1.26h-0.49
			C105.25,52.52,105.71,51.77,106.64,51.77z M106.23,56.09c0.55,0,0.74-0.41,0.8-0.8c0-0.84,0.33-1.47,0.33-2.51
			c0-0.36-0.06-0.77-0.46-0.9c0.12,0.12,0.22,0.33,0.22,0.59c-0.01,1.62-1.56,1.65-1.56,2.88
			C105.56,55.77,105.84,56.09,106.23,56.09z"/>
		<path class="st3" d="M108.41,52.16h-0.19v-0.08h0.24c0.11-0.48,0.48-1.37,1.06-1.37v0.47c-0.39,0-0.85,0.45-0.98,0.9h0.98v0.08
			h-0.63v3.94h-0.49V52.16z"/>
		<path class="st3" d="M110.1,52.16h-0.21v-0.08c0.34,0,0.49-0.51,0.61-1.08h0.08v1.08h0.63v0.08h-0.63v2.06
			c0,1.43,0.28,1.8,0.63,1.8v0.08c-0.57,0-1.11-0.29-1.12-1.84V52.16z"/>
		<path class="st3" d="M111.51,55.07h0.49c0.09,0.57,0.42,1.01,0.97,1.01c0.45,0,0.74-0.31,0.74-0.73c0-1.08-2.03-1.29-2.03-2.61
			c0-0.75,0.58-0.97,1.08-0.97c0.64,0,1.19,0.44,1.19,1.03h-0.48c0-0.51-0.18-0.95-0.7-0.95c-0.44,0-0.61,0.33-0.61,0.73
			c0,1.31,1.98,1.14,1.98,2.54c0,0.51-0.36,1.04-1.16,1.04C112.11,56.16,111.61,55.7,111.51,55.07z"/>
		<path class="st3" d="M114.52,51.84h0.49v1c0.13-0.68,0.44-1.08,0.99-1.08c0.39,0,0.71,0.28,0.87,0.72
			c0.16-0.46,0.45-0.72,0.9-0.72c0.53,0,0.95,0.53,0.95,1.29c0,0.69-0.33,1.54-0.33,2.31c0,0.45,0.15,0.65,0.39,0.65v0.08
			c-0.7,0-0.87-0.44-0.87-0.81c0-0.84,0.33-1.47,0.33-2.51c0-0.43-0.27-0.85-0.65-0.85c-0.3,0-0.54,0.22-0.68,0.7
			c0.03,0.13,0.05,0.27,0.05,0.43c0,0.69-0.33,1.54-0.33,2.31c0,0.45,0.15,0.65,0.39,0.65v0.08c-0.7,0-0.87-0.44-0.87-0.81
			c0-0.84,0.33-1.47,0.33-2.51c0-0.43-0.27-0.85-0.65-0.85c-0.49,0-0.82,0.58-0.82,1.91v2.26h-0.49V51.84z"/>
		<path class="st3" d="M120.71,51.77L120.71,51.77h0.02c0.78,0.01,1.19,0.54,1.19,1.29c0,0.69-0.33,1.54-0.33,2.31
			c0,0.45,0.15,0.65,0.39,0.65v0.08c-0.35,0-0.57-0.11-0.7-0.26c-0.2,0.19-0.51,0.33-0.98,0.33c-0.8,0-1.16-0.54-1.16-1.04
			c0-1.56,1.96-1.04,1.96-2.65c0-0.41-0.2-0.62-0.38-0.62h-0.01c-0.82,0.01-0.91,0.76-0.91,1.26h-0.49
			C119.32,52.52,119.78,51.77,120.71,51.77z M120.3,56.09c0.55,0,0.74-0.41,0.8-0.8c0-0.84,0.33-1.47,0.33-2.51
			c0-0.36-0.07-0.77-0.46-0.9c0.12,0.12,0.22,0.33,0.22,0.59c-0.01,1.62-1.56,1.65-1.56,2.88C119.62,55.77,119.91,56.09,120.3,56.09
			z"/>
		<path class="st3" d="M122.33,51.84h0.49v1.01c0.14-0.69,0.46-1.08,1.07-1.08c0.62,0,1.04,0.53,1.04,1.29
			c0,0.69-0.33,1.54-0.33,2.31c0,0.45,0.15,0.65,0.39,0.65v0.08c-0.7,0-0.87-0.44-0.87-0.81c0-0.84,0.33-1.47,0.33-2.51
			c0-0.43-0.27-0.85-0.74-0.85c-0.56,0-0.89,0.58-0.89,1.91v2.26h-0.49V51.84z"/>
		<path class="st3" d="M125.19,55.07h0.49c0.09,0.57,0.42,1.01,0.97,1.01c0.45,0,0.74-0.31,0.74-0.73c0-1.08-2.03-1.29-2.03-2.61
			c0-0.75,0.58-0.97,1.08-0.97c0.64,0,1.19,0.44,1.19,1.03h-0.49c0-0.51-0.18-0.95-0.7-0.95c-0.44,0-0.61,0.33-0.61,0.73
			c0,1.31,1.98,1.14,1.98,2.54c0,0.51-0.36,1.04-1.16,1.04C125.78,56.16,125.28,55.7,125.19,55.07z"/>
		<path class="st3" d="M128.2,50.49h0.49v2.36c0.14-0.69,0.46-1.08,1.07-1.08c0.62,0,1.04,0.53,1.04,1.29
			c0,0.69-0.33,1.54-0.33,2.31c0,0.45,0.15,0.65,0.39,0.65v0.08c-0.7,0-0.87-0.44-0.87-0.81c0-0.84,0.33-1.47,0.33-2.51
			c0-0.43-0.27-0.85-0.74-0.85c-0.56,0-0.89,0.58-0.89,1.91v2.26h-0.49V50.49z"/>
		<path class="st3" d="M131.61,50.64c0.15,0,0.23,0.16,0.23,0.36c0,0.23-0.15,0.59-0.4,0.59c-0.15,0-0.23-0.15-0.23-0.36
			C131.21,51,131.37,50.64,131.61,50.64z M131.3,51.84h0.49v4.25h-0.49V51.84z"/>
		<path class="st3" d="M132.21,51.84h0.48v0.3c0.23-0.27,0.53-0.38,0.88-0.38c1.09,0,1.42,0.98,1.42,2.2c0,1.22-0.33,2.2-1.42,2.2
			c-0.35,0-0.65-0.1-0.88-0.27v1.55h-0.48V51.84z M133.42,56.08c0.91,0,1.12-2.14,1.12-2.71c0-0.88-0.19-1.51-0.82-1.51
			c-0.6,0-1.04,0.39-1.04,1.69v1.43C132.69,55.45,132.92,56.08,133.42,56.08z"/>
	</g>
	<g>
		<path class="st1" d="M55.32,31.16h-0.56v-0.24h0.73c0.34-1.49,1.44-4.29,3.19-4.29v1.46c-1.17,0-2.56,1.41-2.95,2.82h2.95v0.24
			h-1.9v12.3h-1.46V31.16z"/>
		<path class="st1" d="M59.65,36.81c0-3.8,1-6.87,4.29-6.87c2.36,0,3.92,1.68,3.94,3.41v0.02v0.02c-0.05,3.68-6.87,3.02-6.87,5.26
			c0,2.75,0.58,4.72,2.46,4.72c1.8,0,2.61-1.39,3.12-3.09h1.22c-0.54,2.02-1.71,3.39-3.87,3.39C60.65,43.68,59.65,40.61,59.65,36.81
			z M66.18,33.38c0-1.17-0.29-3.14-1.78-3.14c-2.41,0-3.19,5.11-3.36,7.57C62.14,36.27,66.16,36.35,66.18,33.38z"/>
		<path class="st1" d="M68.98,25.95h1.46v17.51h-1.46V25.95z"/>
		<path class="st1" d="M72.29,31.16h-0.63v-0.24c1.02,0,1.49-1.61,1.85-3.36h0.24v3.36h1.9v0.24h-1.9v6.43
			c0,4.48,0.85,5.63,1.9,5.63v0.24c-1.73,0-3.34-0.9-3.36-5.75V31.16z"/>
		<path class="st3" d="M83.46,39c0,2.61,1.1,4.36,3.85,4.36c2.17,0,3.68-1.73,3.68-4.14c0-2.87-1.51-4.07-2.61-4.07h-0.1
			c0-1.88,3.24-3.8,6.33-3.8v1.7c-2.65,0-5.65,0.41-6.04,1.78c2.22,0.07,4.12,1.39,4.12,4.38c0,0.02,0,0.02,0,0.02
			c0,2.65-2,4.43-5.38,4.43c-4.12,0-5.55-2.68-5.55-4.75c0-2.87,2.12-5.19,5.26-5.63c-3.02-0.58-4.14-1.95-4.14-3.85
			c0-1.51,1-3.75,4.04-3.75c2.82,0,3.77,1.73,4.31,3.92h-1.71c-0.34-2.05-0.66-3.68-2.61-3.68c-1.75,0-2.34,2.36-2.34,3.51
			c0,1.95,0.66,3.14,3.53,3.77v0.24C84.73,33.47,83.46,36.93,83.46,39z"/>
		<path class="st3" d="M100.58,30.18h1.51c0.27,4.33,1.44,8.65,3.34,12.98c0.37-1,0.66-1.97,0.9-2.95
			c-1.22-3.34-1.97-6.67-2.17-10.03h1.51c0.15,2.36,0.56,4.72,1.22,7.09c0.32-2.36,0.37-4.7,0.37-7.09h1.51
			c0,2.97-0.51,5.8-1.41,8.62c0.46,1.46,1.02,2.9,1.66,4.36c1.66-4.51,1.83-8.65,1.83-12.98h1.51c0,4.58-1.24,8.84-3.21,13.27h-1.51
			c-0.37-0.83-0.71-1.66-1.02-2.51c-0.32,0.83-0.68,1.68-1.05,2.51h-1.51C102.06,39.03,100.85,34.62,100.58,30.18z"/>
		<path class="st3" d="M113.22,36.81c0-3.8,1-6.87,4.29-6.87c3.26,0,4.26,3.07,4.26,6.87c0,3.8-1,6.87-4.26,6.87
			C114.21,43.68,113.22,40.61,113.22,36.81z M117.04,43.38c2.73,0,3.36-6.7,3.36-8.45c0-2.75-0.58-4.7-2.43-4.7
			c-2.75,0-3.39,6.65-3.39,8.43C114.58,41.41,115.16,43.38,117.04,43.38z"/>
		<path class="st3" d="M122.73,36.81c0-3.8,1-6.87,4.29-6.87c3.26,0,4.26,3.07,4.26,6.87c0,3.8-1,6.87-4.26,6.87
			C123.73,43.68,122.73,40.61,122.73,36.81z M126.56,43.38c2.73,0,3.36-6.7,3.36-8.45c0-2.75-0.58-4.7-2.43-4.7
			c-2.75,0-3.39,6.65-3.39,8.43C124.1,41.41,124.68,43.38,126.56,43.38z"/>
		<path class="st3" d="M132.37,25.95h1.46v17.51h-1.46V25.95z"/>
	</g>
</g>
</svg>
